<svg xmlns="http://www.w3.org/2000/svg" viewBox="0 0 400 400" role="img"><defs><linearGradient id="g" x2="1" y2="1"><stop stop-color="#fa8eb5"/><stop offset="1" stop-color="#d43d7b"/></linearGradient></defs><ellipse cx="200" cy="350" rx="90" ry="16" fill="#df8caa" opacity=".25"/><g transform="rotate(-15 200 200)"><rect x="150" y="143" width="100" height="185" rx="20" fill="url(#g)" stroke="#c25a80" stroke-width="3"/><rect x="155" y="143" width="15" height="178" rx="8" fill="#fff" opacity=".25"/><rect x="146" y="74" width="108" height="87" rx="12" fill="#e9b9cc" stroke="#b87e97" stroke-width="3"/><path d="M160 85h80" stroke="#fff" stroke-width="5" opacity=".6"/><text x="200" y="235" text-anchor="middle" fill="white" font-family="Georgia" font-size="22" font-style="italic">cherry kiss</text><text x="200" y="257" text-anchor="middle" fill="white" font-size="11" letter-spacing="3">GLOSS</text></g><path d="M70 120q10-25 20 0 10 25 20 0-10 35-20 45-10-10-20-45Z" fill="#e878a0"/><path d="M295 80l10 22 23 9-23 9-10 22-10-22-23-9 23-9Z" fill="#f6d575"/></svg>